<?xml version="1.0" encoding="UTF-8" standalone="no"?>
<!-- Created with Inkscape (http://www.inkscape.org/) -->

<svg
   xmlns:dc="http://purl.org/dc/elements/1.1/"
   xmlns:cc="http://creativecommons.org/ns#"
   xmlns:rdf="http://www.w3.org/1999/02/22-rdf-syntax-ns#"
   xmlns:svg="http://www.w3.org/2000/svg"
   xmlns="http://www.w3.org/2000/svg"
   xmlns:xlink="http://www.w3.org/1999/xlink"
   xmlns:sodipodi="http://sodipodi.sourceforge.net/DTD/sodipodi-0.dtd"
   xmlns:inkscape="http://www.inkscape.org/namespaces/inkscape"
   width="28"
   height="28"
   id="svg3136"
   version="1.1"
   inkscape:version="0.48.5 r10040"
   sodipodi:docname="icon-xs.svg">
  <defs
     id="defs3138">
    <linearGradient
       inkscape:collect="always"
       xlink:href="#linearGradient7567"
       id="linearGradient4122"
       gradientUnits="userSpaceOnUse"
       gradientTransform="matrix(1.01883,0,0,1.01591,-0.648953,-0.463736)"
       x1="61.9585"
       y1="3"
       x2="6.2233124"
       y2="58.090912" />
    <linearGradient
       id="linearGradient7567">
      <stop
         style="stop-color:#9bdfee;stop-opacity:1;"
         offset="0"
         id="stop7569" />
      <stop
         style="stop-color:#66b7c9;stop-opacity:1;"
         offset="1"
         id="stop7571" />
    </linearGradient>
  </defs>
  <sodipodi:namedview
     id="base"
     pagecolor="#ffffff"
     bordercolor="#666666"
     borderopacity="1.0"
     inkscape:pageopacity="0.0"
     inkscape:pageshadow="2"
     inkscape:zoom="3.545766"
     inkscape:cx="-40.639845"
     inkscape:cy="0.80220458"
     inkscape:document-units="px"
     inkscape:current-layer="layer1"
     showgrid="false"
     fit-margin-top="0"
     fit-margin-left="0"
     fit-margin-right="0"
     fit-margin-bottom="0"
     inkscape:window-width="1920"
     inkscape:window-height="1014"
     inkscape:window-x="0"
     inkscape:window-y="27"
     inkscape:window-maximized="1"
     showguides="true"
     inkscape:guide-bbox="true">
    <sodipodi:guide
       orientation="1,0"
       position="-93.632801,-3.1022894"
       id="guide3089" />
    <sodipodi:guide
       orientation="0,1"
       position="92.78672,-11.845111"
       id="guide3091" />
    <sodipodi:guide
       orientation="0,1"
       position="-4.5124246,69.660549"
       id="guide3093" />
    <sodipodi:guide
       orientation="1,0"
       position="131.70638,10.152956"
       id="guide3095" />
  </sodipodi:namedview>
  <metadata
     id="metadata3141">
    <rdf:RDF>
      <cc:Work
         rdf:about="">
        <dc:format>image/svg+xml</dc:format>
        <dc:type
           rdf:resource="http://purl.org/dc/dcmitype/StillImage" />
        <dc:title />
      </cc:Work>
    </rdf:RDF>
  </metadata>
  <g
     inkscape:label="Layer 1"
     inkscape:groupmode="layer"
     id="layer1"
     transform="translate(-308.03215,-764.85601)">
    <g
       transform="matrix(0.43794005,0,0,0.4385636,308.01807,764.80204)"
       style="display:inline"
       id="g3852">
      <rect
         style="fill:url(#linearGradient4122);fill-opacity:1;stroke:none"
         id="rect3854"
         width="63.935692"
         height="63.844788"
         x="0.032151747"
         y="0.12306051"
         ry="2.9927244" />
    </g>
    <g
       id="g3058"
       transform="matrix(0.08611502,0,0,0.08623763,301.80461,762.51658)">
      <g
         id="g2994">
        <g
           id="g3880"
           transform="matrix(1.7202882,0,0,1.7202882,972.9609,25.568601)">
          <path
             transform="matrix(9.5049372,0,0,9.5049372,-85.667049,-99.47259)"
             sodipodi:nodetypes="szszs"
             inkscape:connector-curvature="0"
             id="path3028"
             d="m -38.967345,27.316713 c -3.287552,1.821386 -6.927876,-2.539465 -6.951921,-7.134866 -0.02405,-4.595402 6.457119,-7.928772 8.500529,-6.679645 0.964339,0.589495 -2.590269,3.929292 -2.524317,6.679644 0.06595,2.750353 3.143405,5.933908 0.975709,7.134867 z"
             style="fill:#000000;fill-opacity:1;stroke:none" />
          <path
             sodipodi:nodetypes="sssss"
             inkscape:connector-curvature="0"
             id="path3798"
             d="m -363.6174,32.881046 c 2.89489,2.36509 -3.18204,10.421319 -13.14799,16.903739 -9.96594,6.482421 -19.71278,10.088498 -21.41763,6.761716 -1.70484,-3.326777 4.99212,-13.184024 14.48173,-20.238038 9.54139,-7.092502 13.32998,-8.945302 20.08389,-3.427417 z"
             style="fill:#000000;fill-opacity:1;stroke:none" />
          <path
             sodipodi:nodetypes="sssss"
             inkscape:connector-curvature="0"
             id="path3798-4"
             d="m -336.24515,96.806062 c 2.20971,-3.741575 -8.42326,-4.974931 -18.78541,-4.859047 -10.36215,0.115876 -21.6001,0.336487 -21.22863,3.590729 0.37147,3.254233 10.26324,7.996026 20.55618,8.528406 10.3491,0.53527 17.6241,-4.155077 19.45786,-7.260088 z"
             style="fill:#000000;fill-opacity:1;stroke:none" />
          <path
             sodipodi:nodetypes="sssss"
             inkscape:connector-curvature="0"
             id="path3798-4-0"
             d="m -355.90528,162.84428 c 3.16672,-0.83173 -3.59476,-13.63963 -12.62659,-20.60651 -8.20531,-6.32933 -19.81756,-10.23919 -21.12298,-7.2352 -1.30541,3.00399 5.80388,10.85129 13.53797,17.66391 8.69495,7.659 13.87328,11.84255 20.2116,10.1778 z"
             style="fill:#000000;fill-opacity:1;stroke:none" />
          <path
             id="path3837"
             transform="matrix(9.5049372,0,0,9.5049372,-85.667049,-99.47259)"
             d="m -34.90625,18.09375 c -0.26052,1.9e-4 -0.559918,0.02132 -0.90625,0.03125 -1.385327,0.03972 -2.963049,1.337968 -3.1875,1.9375 -0.224451,0.599532 0.142296,1.191859 0.4375,1.625 0.294388,0.431943 0.905649,0.525925 1.21875,0.875 0.249406,0.278061 0.201377,0.709866 0.46875,0.90625 0.486973,0.357677 1.185809,0.415101 1.78125,0.3125 C -34.297426,23.644034 -33,22.5625 -33,22.5625 c 0,0 1.953753,-1.366665 1.5625,-2.59375 -0.391254,-1.227086 -0.963117,-1.185693 -1.625,-1.5 -0.612052,-0.29065 -1.062189,-0.375571 -1.84375,-0.375 z m -1.0625,1.125 c 0.143083,-0.0237 0.255009,-0.008 0.375,0.03125 0.310386,0.101639 -0.680862,0.561873 -0.90625,0.875 -0.225388,0.313127 -0.223053,0.972303 -0.40625,1 -0.318547,0.04816 -0.237325,-1.105837 -0.09375,-1.34375 0.107678,-0.178435 0.602,-0.491413 1.03125,-0.5625 z m 1.4375,0.28125 c 0.122903,-0.01541 0.240173,-0.01986 0.375,0 0.869685,0.128126 0.969154,0.784825 1,1.03125 0.0583,0.465709 -0.598074,1.212565 -1.40625,1.15625 -1.081729,-0.07538 -1.304668,-0.423558 -1.34375,-0.90625 -0.02433,-0.300539 0.514679,-1.17337 1.375,-1.28125 z M -36,22.4375 c 0.179619,-0.0064 0.585767,0.258452 0.875,0.25 0.385643,-0.01127 0.77293,-0.111848 0.90625,-0.0625 0.302135,0.111833 -0.598806,0.625709 -0.875,0.65625 -0.276192,0.03054 -0.982997,-0.180363 -1,-0.71875 -0.0026,-0.08161 0.03388,-0.122882 0.09375,-0.125 z"
             style="fill:#000000;fill-opacity:1;stroke:none"
             inkscape:connector-curvature="0" />
        </g>
      </g>
      <g
         id="g3022" />
      <g
         id="g3024" />
      <g
         id="g3026" />
      <g
         id="g3028" />
      <g
         id="g3030" />
      <g
         id="g3032" />
      <g
         id="g3034" />
      <g
         id="g3036" />
      <g
         id="g3038" />
      <g
         id="g3040" />
      <g
         id="g3042" />
      <g
         id="g3044" />
      <g
         id="g3046" />
      <g
         id="g3048" />
      <g
         id="g3050" />
    </g>
  </g>
</svg>
